<svg width="376" height="43" viewBox="0 0 376 43" fill="none" xmlns="http://www.w3.org/2000/svg">
<rect x="1" y="1" width="374" height="41" rx="15" fill="#EEEEEE" stroke="#010B7F" stroke-width="2"/>
<path d="M13.0127 25.8501V27H7.36572V25.8501H13.0127ZM7.65137 16.3359V27H6.23779V16.3359H7.65137ZM12.2656 20.9209V22.0708H7.36572V20.9209H12.2656ZM12.9395 16.3359V17.4932H7.36572V16.3359H12.9395ZM15.9058 20.6499V27H14.5435V19.0752H15.8325L15.9058 20.6499ZM15.6274 22.7373L14.9976 22.7153C15.0024 22.1733 15.0732 21.6729 15.21 21.2139C15.3467 20.75 15.5493 20.3472 15.8179 20.0054C16.0864 19.6636 16.4209 19.3999 16.8213 19.2144C17.2217 19.0239 17.6855 18.9287 18.2129 18.9287C18.584 18.9287 18.9258 18.9824 19.2383 19.0898C19.5508 19.1924 19.8218 19.356 20.0513 19.5806C20.2808 19.8052 20.459 20.0933 20.5859 20.4448C20.7129 20.7964 20.7764 21.2212 20.7764 21.7192V27H19.4214V21.7852C19.4214 21.3701 19.3506 21.0381 19.209 20.7891C19.0723 20.54 18.877 20.3594 18.623 20.2471C18.3691 20.1299 18.0713 20.0713 17.7295 20.0713C17.3291 20.0713 16.9946 20.1421 16.7261 20.2837C16.4575 20.4253 16.2427 20.6206 16.0815 20.8696C15.9204 21.1187 15.8032 21.4043 15.73 21.7266C15.6616 22.0439 15.6274 22.3809 15.6274 22.7373ZM20.7617 21.9902L19.8535 22.2686C19.8584 21.834 19.9292 21.4165 20.0659 21.0161C20.2075 20.6157 20.4102 20.2593 20.6738 19.9468C20.9424 19.6343 21.272 19.3877 21.6626 19.207C22.0532 19.0215 22.5 18.9287 23.0029 18.9287C23.4277 18.9287 23.8037 18.9849 24.1309 19.0972C24.4629 19.2095 24.7412 19.3828 24.9658 19.6172C25.1953 19.8467 25.3687 20.1421 25.4858 20.5034C25.603 20.8647 25.6616 21.2944 25.6616 21.7925V27H24.2993V21.7778C24.2993 21.3335 24.2285 20.9893 24.0869 20.7451C23.9502 20.4961 23.7549 20.3228 23.501 20.2251C23.252 20.1226 22.9541 20.0713 22.6074 20.0713C22.3096 20.0713 22.0459 20.1226 21.8164 20.2251C21.5869 20.3276 21.394 20.4692 21.2378 20.6499C21.0815 20.8257 20.9619 21.0283 20.8789 21.2578C20.8008 21.4873 20.7617 21.7314 20.7617 21.9902ZM32.3853 25.645V21.5654C32.3853 21.2529 32.3218 20.9819 32.1948 20.7524C32.0728 20.5181 31.8872 20.3374 31.6382 20.2104C31.3892 20.0835 31.0815 20.02 30.7153 20.02C30.3735 20.02 30.0732 20.0786 29.8145 20.1958C29.5605 20.313 29.3604 20.4668 29.2139 20.6572C29.0723 20.8477 29.0015 21.0527 29.0015 21.2725H27.6465C27.6465 20.9893 27.7197 20.7085 27.8662 20.4302C28.0127 20.1519 28.2227 19.9004 28.4961 19.6758C28.7744 19.4463 29.1064 19.2656 29.4922 19.1338C29.8828 18.9971 30.3174 18.9287 30.7959 18.9287C31.3721 18.9287 31.8799 19.0264 32.3193 19.2217C32.7637 19.417 33.1104 19.7124 33.3594 20.1079C33.6133 20.4985 33.7402 20.9893 33.7402 21.5801V25.2715C33.7402 25.5352 33.7622 25.8159 33.8062 26.1138C33.855 26.4116 33.9258 26.668 34.0186 26.8828V27H32.605C32.5366 26.8438 32.4829 26.6362 32.4438 26.3774C32.4048 26.1138 32.3853 25.8696 32.3853 25.645ZM32.6196 22.1953L32.6343 23.1475H31.2646C30.8789 23.1475 30.5347 23.1792 30.2319 23.2427C29.9292 23.3013 29.6753 23.3916 29.4702 23.5137C29.2651 23.6357 29.1089 23.7896 29.0015 23.9751C28.894 24.1558 28.8403 24.3682 28.8403 24.6123C28.8403 24.8613 28.8965 25.0884 29.0088 25.2935C29.1211 25.4985 29.2896 25.6621 29.5142 25.7842C29.7437 25.9014 30.0244 25.96 30.3564 25.96C30.7715 25.96 31.1377 25.8721 31.4551 25.6963C31.7725 25.5205 32.0239 25.3057 32.2095 25.0518C32.3999 24.7979 32.5024 24.5513 32.5171 24.312L33.0957 24.9639C33.0615 25.1689 32.9688 25.396 32.8174 25.645C32.666 25.894 32.4634 26.1333 32.2095 26.3628C31.9604 26.5874 31.6626 26.7754 31.3159 26.9268C30.9741 27.0732 30.5884 27.1465 30.1587 27.1465C29.6216 27.1465 29.1504 27.0415 28.7451 26.8315C28.3447 26.6216 28.0322 26.3408 27.8076 25.9893C27.5879 25.6328 27.478 25.2349 27.478 24.7954C27.478 24.3706 27.561 23.9971 27.7271 23.6748C27.8931 23.3477 28.1323 23.0767 28.4448 22.8618C28.7573 22.6421 29.1333 22.4761 29.5728 22.3638C30.0122 22.2515 30.5029 22.1953 31.0449 22.1953H32.6196ZM37.3438 19.0752V27H35.9814V19.0752H37.3438ZM35.8789 16.9731C35.8789 16.7534 35.9448 16.5679 36.0767 16.4165C36.2134 16.2651 36.4136 16.1895 36.6772 16.1895C36.936 16.1895 37.1338 16.2651 37.2705 16.4165C37.4121 16.5679 37.4829 16.7534 37.4829 16.9731C37.4829 17.1831 37.4121 17.3638 37.2705 17.5151C37.1338 17.6616 36.936 17.7349 36.6772 17.7349C36.4136 17.7349 36.2134 17.6616 36.0767 17.5151C35.9448 17.3638 35.8789 17.1831 35.8789 16.9731ZM40.9912 15.75V27H39.6289V15.75H40.9912Z" fill="#161616" fill-opacity="0.75"/>
</svg>
