<svg width="171" height="63" viewBox="0 0 171 63" fill="none" xmlns="http://www.w3.org/2000/svg">
<rect x="1" y="1" width="169" height="61" rx="10" stroke="#010B7F" stroke-width="2"/>
<path d="M45.72 45.3C44.62 45.3 43.62 45.03 42.72 44.49C41.84 43.93 41.14 43.19 40.62 42.27C40.1 41.35 39.84 40.32 39.84 39.18L39.87 29.82C39.87 28.72 40.12 27.72 40.62 26.82C41.14 25.9 41.84 25.17 42.72 24.63C43.62 24.07 44.62 23.79 45.72 23.79C46.82 23.79 47.81 24.06 48.69 24.6C49.57 25.14 50.27 25.87 50.79 26.79C51.31 27.69 51.57 28.7 51.57 29.82V31.2C51.57 31.28 51.53 31.32 51.45 31.32H48.09C48.01 31.32 47.97 31.28 47.97 31.2V29.82C47.97 29.16 47.75 28.59 47.31 28.11C46.89 27.63 46.36 27.39 45.72 27.39C45 27.39 44.45 27.64 44.07 28.14C43.69 28.62 43.5 29.18 43.5 29.82V39.18C43.5 39.92 43.71 40.52 44.13 40.98C44.57 41.44 45.1 41.67 45.72 41.67C46.36 41.67 46.89 41.42 47.31 40.92C47.75 40.4 47.97 39.82 47.97 39.18V37.8C47.97 37.72 48.01 37.68 48.09 37.68H51.48C51.56 37.68 51.6 37.72 51.6 37.8V39.18C51.6 40.32 51.33 41.35 50.79 42.27C50.27 43.19 49.57 43.93 48.69 44.49C47.81 45.03 46.82 45.3 45.72 45.3ZM59.3438 45.3C58.2638 45.3 57.2738 45.03 56.3738 44.49C55.4938 43.93 54.7838 43.2 54.2438 42.3C53.7038 41.38 53.4338 40.37 53.4338 39.27L53.4638 29.76C53.4638 28.66 53.7238 27.66 54.2438 26.76C54.7838 25.86 55.5038 25.14 56.4038 24.6C57.3038 24.06 58.2838 23.79 59.3438 23.79C60.4238 23.79 61.4038 24.06 62.2838 24.6C63.1638 25.14 63.8638 25.86 64.3838 26.76C64.9238 27.66 65.1938 28.66 65.1938 29.76L65.2238 39.27C65.2238 40.37 64.9538 41.38 64.4138 42.3C63.8938 43.2 63.1838 43.93 62.2838 44.49C61.4038 45.03 60.4238 45.3 59.3438 45.3ZM59.3438 41.67C59.9438 41.67 60.4638 41.43 60.9038 40.95C61.3638 40.45 61.5938 39.89 61.5938 39.27L61.5638 29.76C61.5638 29.1 61.3538 28.54 60.9338 28.08C60.5138 27.62 59.9838 27.39 59.3438 27.39C58.7238 27.39 58.1938 27.62 57.7538 28.08C57.3138 28.52 57.0938 29.08 57.0938 29.76V39.27C57.0938 39.93 57.3138 40.5 57.7538 40.98C58.1938 41.44 58.7238 41.67 59.3438 41.67ZM67.7747 45C67.6147 45 67.5347 44.93 67.5347 44.79L67.5047 24.36C67.5047 24.2 67.5847 24.12 67.7447 24.12H70.4447L75.5147 35.94L75.3647 24.36C75.3647 24.2 75.4547 24.12 75.6347 24.12H78.6047C78.7247 24.12 78.7847 24.2 78.7847 24.36L78.8147 44.82C78.8147 44.94 78.7647 45 78.6647 45H76.0247L70.8347 33.96L71.0447 44.76C71.0447 44.92 70.9547 45 70.7747 45H67.7747ZM84.4207 45C84.3407 45 84.3007 44.95 84.3007 44.85V27.75H80.4007C80.3007 27.75 80.2507 27.7 80.2507 27.6L80.2807 24.24C80.2807 24.16 80.3207 24.12 80.4007 24.12H91.8007C91.9007 24.12 91.9507 24.16 91.9507 24.24V27.6C91.9507 27.7 91.9107 27.75 91.8307 27.75H87.9007L87.9307 44.85C87.9307 44.95 87.8907 45 87.8107 45H84.4207ZM91.3284 44.85L95.0484 24.24C95.0684 24.16 95.1184 24.12 95.1984 24.12H99.5484C99.6284 24.12 99.6784 24.16 99.6984 24.24L103.268 44.85C103.288 44.95 103.248 45 103.148 45H99.8184C99.7384 45 99.6884 44.95 99.6684 44.85L99.3384 42.66H95.2584L94.9284 44.85C94.9084 44.95 94.8584 45 94.7784 45H91.4484C91.3684 45 91.3284 44.95 91.3284 44.85ZM95.8584 39.45H98.7384L97.5084 31.02L97.3284 29.91L97.2084 31.02L95.8584 39.45ZM110.027 45.3C108.927 45.3 107.927 45.03 107.027 44.49C106.147 43.93 105.447 43.19 104.927 42.27C104.407 41.35 104.147 40.32 104.147 39.18L104.177 29.82C104.177 28.72 104.427 27.72 104.927 26.82C105.447 25.9 106.147 25.17 107.027 24.63C107.927 24.07 108.927 23.79 110.027 23.79C111.127 23.79 112.117 24.06 112.997 24.6C113.877 25.14 114.577 25.87 115.097 26.79C115.617 27.69 115.877 28.7 115.877 29.82V31.2C115.877 31.28 115.837 31.32 115.757 31.32H112.397C112.317 31.32 112.277 31.28 112.277 31.2V29.82C112.277 29.16 112.057 28.59 111.617 28.11C111.197 27.63 110.667 27.39 110.027 27.39C109.307 27.39 108.757 27.64 108.377 28.14C107.997 28.62 107.807 29.18 107.807 29.82V39.18C107.807 39.92 108.017 40.52 108.437 40.98C108.877 41.44 109.407 41.67 110.027 41.67C110.667 41.67 111.197 41.42 111.617 40.92C112.057 40.4 112.277 39.82 112.277 39.18V37.8C112.277 37.72 112.317 37.68 112.397 37.68H115.787C115.867 37.68 115.907 37.72 115.907 37.8V39.18C115.907 40.32 115.637 41.35 115.097 42.27C114.577 43.19 113.877 43.93 112.997 44.49C112.117 45.03 111.127 45.3 110.027 45.3ZM120.72 45C120.64 45 120.6 44.95 120.6 44.85V27.75H116.7C116.6 27.75 116.55 27.7 116.55 27.6L116.58 24.24C116.58 24.16 116.62 24.12 116.7 24.12H128.1C128.2 24.12 128.25 24.16 128.25 24.24V27.6C128.25 27.7 128.21 27.75 128.13 27.75H124.2L124.23 44.85C124.23 44.95 124.19 45 124.11 45H120.72Z" fill="#010B7F"/>
</svg>
