<svg width="376" height="175" viewBox="0 0 376 175" fill="none" xmlns="http://www.w3.org/2000/svg">
<rect x="1" y="1" width="374" height="173" rx="15" fill="#EEEEEE" stroke="#010B7F" stroke-width="2"/>
<path d="M6.68457 12.3359H8.0542L11.5479 21.0298L15.0342 12.3359H16.4111L12.0752 23H11.0059L6.68457 12.3359ZM6.23779 12.3359H7.44629L7.64404 18.8398V23H6.23779V12.3359ZM15.6421 12.3359H16.8506V23H15.4443V18.8398L15.6421 12.3359ZM22.417 23.1465C21.8652 23.1465 21.3647 23.0537 20.9155 22.8682C20.4712 22.6777 20.0879 22.4116 19.7656 22.0698C19.4482 21.728 19.2041 21.3228 19.0332 20.854C18.8623 20.3853 18.7769 19.8726 18.7769 19.3159V19.0083C18.7769 18.3638 18.8721 17.79 19.0625 17.2871C19.2529 16.7793 19.5117 16.3496 19.8389 15.998C20.166 15.6465 20.5371 15.3804 20.9521 15.1997C21.3672 15.019 21.7969 14.9287 22.2412 14.9287C22.8076 14.9287 23.2959 15.0264 23.7061 15.2217C24.1211 15.417 24.4604 15.6904 24.7241 16.042C24.9878 16.3887 25.1831 16.7988 25.3101 17.2725C25.437 17.7412 25.5005 18.2539 25.5005 18.8105V19.4185H19.5825V18.3125H24.1455V18.21C24.126 17.8584 24.0527 17.5166 23.9258 17.1846C23.8037 16.8525 23.6084 16.5791 23.3398 16.3643C23.0713 16.1494 22.7051 16.042 22.2412 16.042C21.9336 16.042 21.6504 16.1079 21.3916 16.2397C21.1328 16.3667 20.9106 16.5571 20.7251 16.811C20.5396 17.0649 20.3955 17.375 20.293 17.7412C20.1904 18.1074 20.1392 18.5298 20.1392 19.0083V19.3159C20.1392 19.6919 20.1904 20.0459 20.293 20.3779C20.4004 20.7051 20.5542 20.9932 20.7544 21.2422C20.9595 21.4912 21.2061 21.6865 21.4941 21.8281C21.7871 21.9697 22.1191 22.0405 22.4902 22.0405C22.9688 22.0405 23.374 21.9429 23.7061 21.7476C24.0381 21.5522 24.3286 21.291 24.5776 20.9639L25.3979 21.6157C25.2271 21.8745 25.0098 22.1211 24.7461 22.3555C24.4824 22.5898 24.1577 22.7803 23.772 22.9268C23.3911 23.0732 22.9395 23.1465 22.417 23.1465ZM31.6968 20.8979C31.6968 20.7026 31.6528 20.522 31.5649 20.356C31.4819 20.1851 31.3086 20.0312 31.0449 19.8945C30.7861 19.7529 30.3955 19.6309 29.873 19.5283C29.4336 19.4355 29.0356 19.3257 28.6792 19.1987C28.3276 19.0718 28.0273 18.918 27.7783 18.7373C27.5342 18.5566 27.3462 18.3442 27.2144 18.1001C27.0825 17.856 27.0166 17.5703 27.0166 17.2432C27.0166 16.9307 27.085 16.6353 27.2217 16.3569C27.3633 16.0786 27.561 15.832 27.8149 15.6172C28.0737 15.4023 28.3838 15.2339 28.7451 15.1118C29.1064 14.9897 29.5093 14.9287 29.9536 14.9287C30.5884 14.9287 31.1304 15.041 31.5796 15.2656C32.0288 15.4902 32.373 15.7905 32.6123 16.1665C32.8516 16.5376 32.9712 16.9502 32.9712 17.4043H31.6162C31.6162 17.1846 31.5503 16.9722 31.4185 16.7671C31.2915 16.5571 31.1035 16.3838 30.8545 16.2471C30.6104 16.1104 30.3101 16.042 29.9536 16.042C29.5776 16.042 29.2725 16.1006 29.0381 16.2178C28.8086 16.3301 28.6401 16.4741 28.5327 16.6499C28.4302 16.8257 28.3789 17.0112 28.3789 17.2065C28.3789 17.353 28.4033 17.4849 28.4521 17.6021C28.5059 17.7144 28.5986 17.8193 28.7305 17.917C28.8623 18.0098 29.0479 18.0977 29.2871 18.1807C29.5264 18.2637 29.8315 18.3467 30.2026 18.4297C30.8521 18.5762 31.3867 18.752 31.8066 18.957C32.2266 19.1621 32.5391 19.4136 32.7441 19.7114C32.9492 20.0093 33.0518 20.3706 33.0518 20.7954C33.0518 21.1421 32.9785 21.4595 32.832 21.7476C32.6904 22.0356 32.4829 22.2847 32.2095 22.4946C31.9409 22.6997 31.6187 22.8608 31.2427 22.978C30.8716 23.0903 30.4541 23.1465 29.9902 23.1465C29.292 23.1465 28.7012 23.022 28.2178 22.7729C27.7344 22.5239 27.3682 22.2017 27.1191 21.8062C26.8701 21.4106 26.7456 20.9932 26.7456 20.5537H28.1079C28.1274 20.9248 28.2349 21.2202 28.4302 21.4399C28.6255 21.6548 28.8647 21.8086 29.1479 21.9014C29.4312 21.9893 29.7119 22.0332 29.9902 22.0332C30.3613 22.0332 30.6714 21.9844 30.9204 21.8867C31.1743 21.7891 31.3672 21.6548 31.499 21.4839C31.6309 21.313 31.6968 21.1177 31.6968 20.8979ZM39.4458 20.8979C39.4458 20.7026 39.4019 20.522 39.314 20.356C39.231 20.1851 39.0576 20.0312 38.7939 19.8945C38.5352 19.7529 38.1445 19.6309 37.6221 19.5283C37.1826 19.4355 36.7847 19.3257 36.4282 19.1987C36.0767 19.0718 35.7764 18.918 35.5273 18.7373C35.2832 18.5566 35.0952 18.3442 34.9634 18.1001C34.8315 17.856 34.7656 17.5703 34.7656 17.2432C34.7656 16.9307 34.834 16.6353 34.9707 16.3569C35.1123 16.0786 35.3101 15.832 35.564 15.6172C35.8228 15.4023 36.1328 15.2339 36.4941 15.1118C36.8555 14.9897 37.2583 14.9287 37.7026 14.9287C38.3374 14.9287 38.8794 15.041 39.3286 15.2656C39.7778 15.4902 40.1221 15.7905 40.3613 16.1665C40.6006 16.5376 40.7202 16.9502 40.7202 17.4043H39.3652C39.3652 17.1846 39.2993 16.9722 39.1675 16.7671C39.0405 16.5571 38.8525 16.3838 38.6035 16.2471C38.3594 16.1104 38.0591 16.042 37.7026 16.042C37.3267 16.042 37.0215 16.1006 36.7871 16.2178C36.5576 16.3301 36.3892 16.4741 36.2817 16.6499C36.1792 16.8257 36.1279 17.0112 36.1279 17.2065C36.1279 17.353 36.1523 17.4849 36.2012 17.6021C36.2549 17.7144 36.3477 17.8193 36.4795 17.917C36.6113 18.0098 36.7969 18.0977 37.0361 18.1807C37.2754 18.2637 37.5806 18.3467 37.9517 18.4297C38.6011 18.5762 39.1357 18.752 39.5557 18.957C39.9756 19.1621 40.2881 19.4136 40.4932 19.7114C40.6982 20.0093 40.8008 20.3706 40.8008 20.7954C40.8008 21.1421 40.7275 21.4595 40.5811 21.7476C40.4395 22.0356 40.2319 22.2847 39.9585 22.4946C39.6899 22.6997 39.3677 22.8608 38.9917 22.978C38.6206 23.0903 38.2031 23.1465 37.7393 23.1465C37.041 23.1465 36.4502 23.022 35.9668 22.7729C35.4834 22.5239 35.1172 22.2017 34.8682 21.8062C34.6191 21.4106 34.4946 20.9932 34.4946 20.5537H35.8569C35.8765 20.9248 35.9839 21.2202 36.1792 21.4399C36.3745 21.6548 36.6138 21.8086 36.897 21.9014C37.1802 21.9893 37.4609 22.0332 37.7393 22.0332C38.1104 22.0332 38.4204 21.9844 38.6694 21.8867C38.9233 21.7891 39.1162 21.6548 39.248 21.4839C39.3799 21.313 39.4458 21.1177 39.4458 20.8979ZM47.2534 21.645V17.5654C47.2534 17.2529 47.1899 16.9819 47.063 16.7524C46.9409 16.5181 46.7554 16.3374 46.5063 16.2104C46.2573 16.0835 45.9497 16.02 45.5835 16.02C45.2417 16.02 44.9414 16.0786 44.6826 16.1958C44.4287 16.313 44.2285 16.4668 44.082 16.6572C43.9404 16.8477 43.8696 17.0527 43.8696 17.2725H42.5146C42.5146 16.9893 42.5879 16.7085 42.7344 16.4302C42.8809 16.1519 43.0908 15.9004 43.3643 15.6758C43.6426 15.4463 43.9746 15.2656 44.3604 15.1338C44.751 14.9971 45.1855 14.9287 45.6641 14.9287C46.2402 14.9287 46.748 15.0264 47.1875 15.2217C47.6318 15.417 47.9785 15.7124 48.2275 16.1079C48.4814 16.4985 48.6084 16.9893 48.6084 17.5801V21.2715C48.6084 21.5352 48.6304 21.8159 48.6743 22.1138C48.7231 22.4116 48.7939 22.668 48.8867 22.8828V23H47.4731C47.4048 22.8438 47.3511 22.6362 47.312 22.3774C47.2729 22.1138 47.2534 21.8696 47.2534 21.645ZM47.4878 18.1953L47.5024 19.1475H46.1328C45.7471 19.1475 45.4028 19.1792 45.1001 19.2427C44.7974 19.3013 44.5435 19.3916 44.3384 19.5137C44.1333 19.6357 43.9771 19.7896 43.8696 19.9751C43.7622 20.1558 43.7085 20.3682 43.7085 20.6123C43.7085 20.8613 43.7646 21.0884 43.877 21.2935C43.9893 21.4985 44.1577 21.6621 44.3823 21.7842C44.6118 21.9014 44.8926 21.96 45.2246 21.96C45.6396 21.96 46.0059 21.8721 46.3232 21.6963C46.6406 21.5205 46.8921 21.3057 47.0776 21.0518C47.2681 20.7979 47.3706 20.5513 47.3853 20.312L47.9639 20.9639C47.9297 21.1689 47.8369 21.396 47.6855 21.645C47.5342 21.894 47.3315 22.1333 47.0776 22.3628C46.8286 22.5874 46.5308 22.7754 46.1841 22.9268C45.8423 23.0732 45.4565 23.1465 45.0269 23.1465C44.4897 23.1465 44.0186 23.0415 43.6133 22.8315C43.2129 22.6216 42.9004 22.3408 42.6758 21.9893C42.4561 21.6328 42.3462 21.2349 42.3462 20.7954C42.3462 20.3706 42.4292 19.9971 42.5952 19.6748C42.7612 19.3477 43.0005 19.0767 43.313 18.8618C43.6255 18.6421 44.0015 18.4761 44.4409 18.3638C44.8804 18.2515 45.3711 18.1953 45.9131 18.1953H47.4878ZM55.874 15.0752H57.1045V22.8315C57.1045 23.5298 56.9629 24.1255 56.6797 24.6187C56.3965 25.1118 56.001 25.4854 55.4932 25.7393C54.9902 25.998 54.4092 26.1274 53.75 26.1274C53.4766 26.1274 53.1543 26.0835 52.7832 25.9956C52.417 25.9126 52.0557 25.7686 51.6992 25.5635C51.3477 25.3633 51.0522 25.0923 50.813 24.7505L51.5234 23.9448C51.8555 24.3452 52.2021 24.6235 52.5635 24.7798C52.9297 24.936 53.291 25.0142 53.6475 25.0142C54.0771 25.0142 54.4482 24.9336 54.7607 24.7725C55.0732 24.6113 55.3149 24.3721 55.4858 24.0547C55.6616 23.7422 55.7495 23.3564 55.7495 22.8975V16.8184L55.874 15.0752ZM50.4175 19.1255V18.9717C50.4175 18.3662 50.4883 17.8169 50.6299 17.3237C50.7764 16.8257 50.9839 16.3984 51.2524 16.042C51.5259 15.6855 51.8555 15.4121 52.2412 15.2217C52.627 15.0264 53.0615 14.9287 53.5449 14.9287C54.043 14.9287 54.4775 15.0166 54.8486 15.1924C55.2246 15.3633 55.542 15.6147 55.8008 15.9468C56.0645 16.2739 56.272 16.6694 56.4233 17.1333C56.5747 17.5972 56.6797 18.1221 56.7383 18.708V19.3818C56.6846 19.9629 56.5796 20.4854 56.4233 20.9492C56.272 21.4131 56.0645 21.8086 55.8008 22.1357C55.542 22.4629 55.2246 22.7144 54.8486 22.8901C54.4727 23.061 54.0332 23.1465 53.5303 23.1465C53.0566 23.1465 52.627 23.0464 52.2412 22.8462C51.8604 22.646 51.5332 22.3652 51.2598 22.0039C50.9863 21.6426 50.7764 21.2178 50.6299 20.7295C50.4883 20.2363 50.4175 19.7017 50.4175 19.1255ZM51.7725 18.9717V19.1255C51.7725 19.521 51.8115 19.8921 51.8896 20.2388C51.9727 20.5854 52.0972 20.8906 52.2632 21.1543C52.4341 21.418 52.6514 21.6255 52.915 21.7769C53.1787 21.9233 53.4937 21.9966 53.8599 21.9966C54.3091 21.9966 54.6802 21.9014 54.9731 21.7109C55.2661 21.5205 55.498 21.269 55.6689 20.9565C55.8447 20.644 55.9814 20.3047 56.0791 19.9385V18.1733C56.0254 17.9048 55.9424 17.646 55.8301 17.397C55.7227 17.1431 55.5811 16.9185 55.4053 16.7231C55.2344 16.5229 55.022 16.3643 54.7681 16.2471C54.5142 16.1299 54.2163 16.0713 53.8745 16.0713C53.5034 16.0713 53.1836 16.1494 52.915 16.3057C52.6514 16.457 52.4341 16.667 52.2632 16.9355C52.0972 17.1992 51.9727 17.5068 51.8896 17.8584C51.8115 18.2051 51.7725 18.5762 51.7725 18.9717ZM62.4512 23.1465C61.8994 23.1465 61.3989 23.0537 60.9497 22.8682C60.5054 22.6777 60.1221 22.4116 59.7998 22.0698C59.4824 21.728 59.2383 21.3228 59.0674 20.854C58.8965 20.3853 58.811 19.8726 58.811 19.3159V19.0083C58.811 18.3638 58.9062 17.79 59.0967 17.2871C59.2871 16.7793 59.5459 16.3496 59.873 15.998C60.2002 15.6465 60.5713 15.3804 60.9863 15.1997C61.4014 15.019 61.8311 14.9287 62.2754 14.9287C62.8418 14.9287 63.3301 15.0264 63.7402 15.2217C64.1553 15.417 64.4946 15.6904 64.7583 16.042C65.022 16.3887 65.2173 16.7988 65.3442 17.2725C65.4712 17.7412 65.5347 18.2539 65.5347 18.8105V19.4185H59.6167V18.3125H64.1797V18.21C64.1602 17.8584 64.0869 17.5166 63.96 17.1846C63.8379 16.8525 63.6426 16.5791 63.374 16.3643C63.1055 16.1494 62.7393 16.042 62.2754 16.042C61.9678 16.042 61.6846 16.1079 61.4258 16.2397C61.167 16.3667 60.9448 16.5571 60.7593 16.811C60.5737 17.0649 60.4297 17.375 60.3271 17.7412C60.2246 18.1074 60.1733 18.5298 60.1733 19.0083V19.3159C60.1733 19.6919 60.2246 20.0459 60.3271 20.3779C60.4346 20.7051 60.5884 20.9932 60.7886 21.2422C60.9937 21.4912 61.2402 21.6865 61.5283 21.8281C61.8213 21.9697 62.1533 22.0405 62.5244 22.0405C63.0029 22.0405 63.4082 21.9429 63.7402 21.7476C64.0723 21.5522 64.3628 21.291 64.6118 20.9639L65.4321 21.6157C65.2612 21.8745 65.0439 22.1211 64.7803 22.3555C64.5166 22.5898 64.1919 22.7803 63.8062 22.9268C63.4253 23.0732 62.9736 23.1465 62.4512 23.1465ZM67.1387 22.2822C67.1387 22.0527 67.2095 21.8599 67.3511 21.7036C67.4976 21.5425 67.7075 21.4619 67.981 21.4619C68.2544 21.4619 68.4619 21.5425 68.6035 21.7036C68.75 21.8599 68.8232 22.0527 68.8232 22.2822C68.8232 22.5068 68.75 22.6973 68.6035 22.8535C68.4619 23.0098 68.2544 23.0879 67.981 23.0879C67.7075 23.0879 67.4976 23.0098 67.3511 22.8535C67.2095 22.6973 67.1387 22.5068 67.1387 22.2822ZM71.0938 22.2822C71.0938 22.0527 71.1646 21.8599 71.3062 21.7036C71.4526 21.5425 71.6626 21.4619 71.936 21.4619C72.2095 21.4619 72.417 21.5425 72.5586 21.7036C72.7051 21.8599 72.7783 22.0527 72.7783 22.2822C72.7783 22.5068 72.7051 22.6973 72.5586 22.8535C72.417 23.0098 72.2095 23.0879 71.936 23.0879C71.6626 23.0879 71.4526 23.0098 71.3062 22.8535C71.1646 22.6973 71.0938 22.5068 71.0938 22.2822ZM75.0488 22.2822C75.0488 22.0527 75.1196 21.8599 75.2612 21.7036C75.4077 21.5425 75.6177 21.4619 75.8911 21.4619C76.1646 21.4619 76.3721 21.5425 76.5137 21.7036C76.6602 21.8599 76.7334 22.0527 76.7334 22.2822C76.7334 22.5068 76.6602 22.6973 76.5137 22.8535C76.3721 23.0098 76.1646 23.0879 75.8911 23.0879C75.6177 23.0879 75.4077 23.0098 75.2612 22.8535C75.1196 22.6973 75.0488 22.5068 75.0488 22.2822Z" fill="#161616" fill-opacity="0.75"/>
</svg>
