<svg width="110" height="30" viewBox="0 0 110 30" fill="none" xmlns="http://www.w3.org/2000/svg">
<rect x="1" y="1" width="108" height="28" rx="10" fill="#EEEEEE" stroke="#010B7F" stroke-width="2"/>
<path d="M27.4755 21.9L29.9555 8.16C29.9688 8.10667 30.0021 8.08 30.0555 8.08H32.9555C33.0088 8.08 33.0421 8.10667 33.0555 8.16L35.4355 21.9C35.4488 21.9667 35.4221 22 35.3555 22H33.1355C33.0821 22 33.0488 21.9667 33.0355 21.9L32.8155 20.44H30.0955L29.8755 21.9C29.8621 21.9667 29.8288 22 29.7755 22H27.5555C27.5021 22 27.4755 21.9667 27.4755 21.9ZM30.4955 18.3H32.4155L31.5955 12.68L31.4755 11.94L31.3955 12.68L30.4955 18.3ZM39.9409 22.2C39.2076 22.2 38.5409 22.02 37.9409 21.66C37.3543 21.2867 36.8876 20.7933 36.5409 20.18C36.1943 19.5667 36.0209 18.88 36.0209 18.12L36.0409 11.88C36.0409 11.1467 36.2076 10.48 36.5409 9.88C36.8876 9.26667 37.3543 8.78 37.9409 8.42C38.5409 8.04667 39.2076 7.86 39.9409 7.86C40.6743 7.86 41.3343 8.04 41.9209 8.4C42.5076 8.76 42.9743 9.24667 43.3209 9.86C43.6676 10.46 43.8409 11.1333 43.8409 11.88V12.8C43.8409 12.8533 43.8143 12.88 43.7609 12.88H41.5209C41.4676 12.88 41.4409 12.8533 41.4409 12.8V11.88C41.4409 11.44 41.2943 11.06 41.0009 10.74C40.7209 10.42 40.3676 10.26 39.9409 10.26C39.4609 10.26 39.0943 10.4267 38.8409 10.76C38.5876 11.08 38.4609 11.4533 38.4609 11.88V18.12C38.4609 18.6133 38.6009 19.0133 38.8809 19.32C39.1743 19.6267 39.5276 19.78 39.9409 19.78C40.3676 19.78 40.7209 19.6133 41.0009 19.28C41.2943 18.9333 41.4409 18.5467 41.4409 18.12V17.2C41.4409 17.1467 41.4676 17.12 41.5209 17.12H43.7809C43.8343 17.12 43.8609 17.1467 43.8609 17.2V18.12C43.8609 18.88 43.6809 19.5667 43.3209 20.18C42.9743 20.7933 42.5076 21.2867 41.9209 21.66C41.3343 22.02 40.6743 22.2 39.9409 22.2ZM49.0034 22.2C48.2701 22.2 47.6034 22.02 47.0034 21.66C46.4168 21.2867 45.9501 20.7933 45.6034 20.18C45.2568 19.5667 45.0834 18.88 45.0834 18.12L45.1034 11.88C45.1034 11.1467 45.2701 10.48 45.6034 9.88C45.9501 9.26667 46.4168 8.78 47.0034 8.42C47.6034 8.04667 48.2701 7.86 49.0034 7.86C49.7368 7.86 50.3968 8.04 50.9834 8.4C51.5701 8.76 52.0368 9.24667 52.3834 9.86C52.7301 10.46 52.9034 11.1333 52.9034 11.88V12.8C52.9034 12.8533 52.8768 12.88 52.8234 12.88H50.5834C50.5301 12.88 50.5034 12.8533 50.5034 12.8V11.88C50.5034 11.44 50.3568 11.06 50.0634 10.74C49.7834 10.42 49.4301 10.26 49.0034 10.26C48.5234 10.26 48.1568 10.4267 47.9034 10.76C47.6501 11.08 47.5234 11.4533 47.5234 11.88V18.12C47.5234 18.6133 47.6634 19.0133 47.9434 19.32C48.2368 19.6267 48.5901 19.78 49.0034 19.78C49.4301 19.78 49.7834 19.6133 50.0634 19.28C50.3568 18.9333 50.5034 18.5467 50.5034 18.12V17.2C50.5034 17.1467 50.5301 17.12 50.5834 17.12H52.8434C52.8968 17.12 52.9234 17.1467 52.9234 17.2V18.12C52.9234 18.88 52.7434 19.5667 52.3834 20.18C52.0368 20.7933 51.5701 21.2867 50.9834 21.66C50.3968 22.02 49.7368 22.2 49.0034 22.2ZM58.1831 22.2C57.4765 22.2 56.8231 22.02 56.2231 21.66C55.6231 21.2867 55.1431 20.7933 54.7831 20.18C54.4365 19.5667 54.2631 18.8933 54.2631 18.16L54.3031 8.16C54.3031 8.10667 54.3298 8.08 54.3831 8.08H56.6231C56.6765 8.08 56.7031 8.10667 56.7031 8.16V18.16C56.7031 18.6133 56.8431 19 57.1231 19.32C57.4165 19.6267 57.7698 19.78 58.1831 19.78C58.6098 19.78 58.9631 19.6267 59.2431 19.32C59.5365 19 59.6831 18.6133 59.6831 18.16V8.16C59.6831 8.10667 59.7098 8.08 59.7631 8.08H62.0031C62.0565 8.08 62.0831 8.10667 62.0831 8.16L62.1231 18.16C62.1231 18.9067 61.9431 19.5867 61.5831 20.2C61.2365 20.8133 60.7631 21.3 60.1631 21.66C59.5765 22.02 58.9165 22.2 58.1831 22.2ZM63.7823 22C63.729 22 63.7023 21.9667 63.7023 21.9L63.7223 8.16C63.7223 8.10667 63.749 8.08 63.8023 8.08H70.2223C70.2757 8.08 70.3023 8.11333 70.3023 8.18V10.42C70.3023 10.4733 70.2757 10.5 70.2223 10.5H66.1223V13.62H70.2223C70.2757 13.62 70.3023 13.6467 70.3023 13.7L70.3223 15.96C70.3223 16.0133 70.2957 16.04 70.2423 16.04H66.1223V19.54H70.2423C70.2957 19.54 70.3223 19.5733 70.3223 19.64V21.92C70.3223 21.9733 70.2957 22 70.2423 22H63.7823ZM72.2008 22C72.1341 22 72.1008 21.9667 72.1008 21.9L72.1208 8.16C72.1208 8.10667 72.1474 8.08 72.2008 8.08H74.4408C74.4941 8.08 74.5208 8.10667 74.5208 8.16L74.5408 21.9C74.5408 21.9667 74.5141 22 74.4608 22H72.2008ZM76.5753 22C76.522 22 76.4953 21.9667 76.4953 21.9L76.5153 8.18C76.5153 8.11333 76.5486 8.08 76.6153 8.08H78.8353C78.902 8.08 78.9353 8.11333 78.9353 8.18L78.9153 19.54H83.0353C83.102 19.54 83.1353 19.5733 83.1353 19.64V21.9C83.1353 21.9667 83.102 22 83.0353 22H76.5753Z" fill="#010B7F"/>
</svg>
