<svg width="183" height="43" viewBox="0 0 183 43" fill="none" xmlns="http://www.w3.org/2000/svg">
<rect x="1" y="1" width="180.266" height="41" rx="10" fill="#EEEEEE" stroke="#010B7F" stroke-width="2"/>
<path d="M46.6901 31C46.6101 31 46.5701 30.95 46.5701 30.85L46.6001 10.24C46.6001 10.16 46.6401 10.12 46.7201 10.12H56.3501C56.4301 10.12 56.4701 10.17 56.4701 10.27V13.63C56.4701 13.71 56.4301 13.75 56.3501 13.75H50.2001V18.43H56.3501C56.4301 18.43 56.4701 18.47 56.4701 18.55L56.5001 21.94C56.5001 22.02 56.4601 22.06 56.3801 22.06H50.2001V27.31H56.3801C56.4601 27.31 56.5001 27.36 56.5001 27.46V30.88C56.5001 30.96 56.4601 31 56.3801 31H46.6901ZM59.4378 31C59.2778 31 59.1978 30.93 59.1978 30.79L59.1678 10.36C59.1678 10.2 59.2478 10.12 59.4078 10.12H62.1078L67.1778 21.94L67.0278 10.36C67.0278 10.2 67.1178 10.12 67.2978 10.12H70.2678C70.3878 10.12 70.4478 10.2 70.4478 10.36L70.4778 30.82C70.4778 30.94 70.4278 31 70.3278 31H67.6878L62.4978 19.96L62.7078 30.76C62.7078 30.92 62.6178 31 62.4378 31H59.4378ZM76.4438 31C76.3638 31 76.3138 30.95 76.2938 30.85L72.1538 10.24C72.1338 10.16 72.1738 10.12 72.2738 10.12H75.6638C75.7438 10.12 75.7938 10.16 75.8138 10.24L78.2738 23.98L80.6738 10.24C80.6938 10.16 80.7438 10.12 80.8238 10.12H84.1838C84.2838 10.12 84.3238 10.16 84.3038 10.24L80.2238 30.85C80.2038 30.95 80.1538 31 80.0738 31H76.4438ZM91.0264 31.3C89.9464 31.3 88.9564 31.03 88.0564 30.49C87.1764 29.93 86.4664 29.2 85.9264 28.3C85.3864 27.38 85.1164 26.37 85.1164 25.27L85.1464 15.76C85.1464 14.66 85.4064 13.66 85.9264 12.76C86.4664 11.86 87.1864 11.14 88.0864 10.6C88.9864 10.06 89.9664 9.79 91.0264 9.79C92.1064 9.79 93.0864 10.06 93.9664 10.6C94.8464 11.14 95.5464 11.86 96.0664 12.76C96.6064 13.66 96.8764 14.66 96.8764 15.76L96.9064 25.27C96.9064 26.37 96.6364 27.38 96.0964 28.3C95.5764 29.2 94.8664 29.93 93.9664 30.49C93.0864 31.03 92.1064 31.3 91.0264 31.3ZM91.0264 27.67C91.6264 27.67 92.1464 27.43 92.5864 26.95C93.0464 26.45 93.2764 25.89 93.2764 25.27L93.2464 15.76C93.2464 15.1 93.0364 14.54 92.6164 14.08C92.1964 13.62 91.6664 13.39 91.0264 13.39C90.4064 13.39 89.8764 13.62 89.4364 14.08C88.9964 14.52 88.7764 15.08 88.7764 15.76V25.27C88.7764 25.93 88.9964 26.5 89.4364 26.98C89.8764 27.44 90.4064 27.67 91.0264 27.67ZM101.509 31C101.449 31 101.419 30.96 101.419 30.88L101.449 22.36L97.4286 10.24C97.4086 10.16 97.4386 10.12 97.5186 10.12H100.849C100.949 10.12 101.009 10.16 101.029 10.24L103.249 18.31L105.499 10.24C105.519 10.16 105.569 10.12 105.649 10.12H109.009C109.089 10.12 109.119 10.16 109.099 10.24L105.049 22.24L105.079 30.88C105.079 30.96 105.039 31 104.959 31H101.509ZM110.88 31C110.8 31 110.76 30.95 110.76 30.85L110.79 10.24C110.79 10.16 110.83 10.12 110.91 10.12H120.54C120.62 10.12 120.66 10.17 120.66 10.27V13.63C120.66 13.71 120.62 13.75 120.54 13.75H114.39V18.43H120.54C120.62 18.43 120.66 18.47 120.66 18.55L120.69 21.94C120.69 22.02 120.65 22.06 120.57 22.06H114.39V27.31H120.57C120.65 27.31 120.69 27.36 120.69 27.46V30.88C120.69 30.96 120.65 31 120.57 31H110.88ZM123.477 31C123.397 31 123.357 30.95 123.357 30.85L123.417 10.24C123.417 10.16 123.457 10.12 123.537 10.12H129.597C130.677 10.12 131.667 10.39 132.567 10.93C133.487 11.45 134.217 12.16 134.757 13.06C135.297 13.94 135.567 14.94 135.567 16.06C135.567 16.8 135.457 17.47 135.237 18.07C135.017 18.65 134.757 19.15 134.457 19.57C134.157 19.97 133.887 20.27 133.647 20.47C134.727 21.67 135.267 23.08 135.267 24.7L135.297 30.85C135.297 30.95 135.247 31 135.147 31H131.757C131.677 31 131.637 30.97 131.637 30.91V24.7C131.637 23.98 131.377 23.36 130.857 22.84C130.357 22.3 129.737 22.03 128.997 22.03H127.017L126.987 30.85C126.987 30.95 126.947 31 126.867 31H123.477ZM127.017 18.43H129.597C130.217 18.43 130.767 18.2 131.247 17.74C131.727 17.28 131.967 16.72 131.967 16.06C131.967 15.42 131.727 14.87 131.247 14.41C130.787 13.95 130.237 13.72 129.597 13.72H127.017V18.43Z" fill="#010B7F"/>
</svg>
