<svg width="110" height="30" viewBox="0 0 110 30" fill="none" xmlns="http://www.w3.org/2000/svg">
<rect x="1" y="1" width="108" height="28" rx="10" fill="#EEEEEE" stroke="#010B7F" stroke-width="2"/>
<path d="M36.9933 22C36.9399 22 36.9133 21.9667 36.9133 21.9L36.9333 8.16C36.9333 8.10667 36.9666 8.08 37.0333 8.08H39.2533C39.3199 8.08 39.3533 8.10667 39.3533 8.16L39.3333 13.6H42.3333V8.16C42.3333 8.10667 42.3599 8.08 42.4133 8.08H44.6333C44.6999 8.08 44.7333 8.10667 44.7333 8.16L44.7733 21.9C44.7733 21.9667 44.7399 22 44.6733 22H42.4333C42.3666 22 42.3333 21.9667 42.3333 21.9V16.02H39.3333V21.9C39.3333 21.9667 39.3066 22 39.2533 22H36.9933ZM50.1055 22.2C49.3855 22.2 48.7255 22.02 48.1255 21.66C47.5388 21.2867 47.0655 20.8 46.7055 20.2C46.3455 19.5867 46.1655 18.9133 46.1655 18.18L46.1855 11.84C46.1855 11.1067 46.3588 10.44 46.7055 9.84C47.0655 9.24 47.5455 8.76 48.1455 8.4C48.7455 8.04 49.3988 7.86 50.1055 7.86C50.8255 7.86 51.4788 8.04 52.0655 8.4C52.6521 8.76 53.1188 9.24 53.4655 9.84C53.8255 10.44 54.0055 11.1067 54.0055 11.84L54.0255 18.18C54.0255 18.9133 53.8455 19.5867 53.4855 20.2C53.1388 20.8 52.6655 21.2867 52.0655 21.66C51.4788 22.02 50.8255 22.2 50.1055 22.2ZM50.1055 19.78C50.5055 19.78 50.8521 19.62 51.1455 19.3C51.4521 18.9667 51.6055 18.5933 51.6055 18.18L51.5855 11.84C51.5855 11.4 51.4455 11.0267 51.1655 10.72C50.8855 10.4133 50.5321 10.26 50.1055 10.26C49.6921 10.26 49.3388 10.4133 49.0455 10.72C48.7521 11.0133 48.6055 11.3867 48.6055 11.84V18.18C48.6055 18.62 48.7521 19 49.0455 19.32C49.3388 19.6267 49.6921 19.78 50.1055 19.78ZM55.6261 22C55.5728 22 55.5461 21.9667 55.5461 21.9L55.5861 8.16C55.5861 8.10667 55.6128 8.08 55.6661 8.08H58.1061C58.1594 8.08 58.2061 8.10667 58.2461 8.16L60.0661 10.8L61.8861 8.16C61.9261 8.10667 61.9728 8.08 62.0261 8.08H64.4861C64.5394 8.08 64.5661 8.10667 64.5661 8.16L64.6061 21.9C64.6061 21.9667 64.5794 22 64.5261 22H62.2661C62.2128 22 62.1861 21.9667 62.1861 21.9L62.1661 11.7L60.0661 14.74L57.9861 11.7L57.9661 21.9C57.9661 21.9667 57.9394 22 57.8861 22H55.6261ZM66.3683 22C66.3149 22 66.2883 21.9667 66.2883 21.9L66.3083 8.16C66.3083 8.10667 66.3349 8.08 66.3883 8.08H72.8083C72.8616 8.08 72.8883 8.11333 72.8883 8.18V10.42C72.8883 10.4733 72.8616 10.5 72.8083 10.5H68.7083V13.62H72.8083C72.8616 13.62 72.8883 13.6467 72.8883 13.7L72.9083 15.96C72.9083 16.0133 72.8816 16.04 72.8283 16.04H68.7083V19.54H72.8283C72.8816 19.54 72.9083 19.5733 72.9083 19.64V21.92C72.9083 21.9733 72.8816 22 72.8283 22H66.3683Z" fill="#010B7F"/>
</svg>
