<svg xmlns="http://www.w3.org/2000/svg" version="1.1" xmlns:xlink="http://www.w3.org/1999/xlink" width="72" height="72"><svg width="72" height="72" viewBox="0 0 72 72" fill="none" xmlns="http://www.w3.org/2000/svg">
<rect x="1.5" y="1.5" width="69" height="69" fill="#EEEEEE" stroke="#161616" stroke-width="3"></rect>
<path d="M14.5618 59.8652V36.0001M49.5988 12.1349L32.5238 37.0848L23.9863 25.6946M49.5988 12.1349H58.2472M49.5988 12.1349V36.0001M23.9863 25.6946L14.5618 12.1349V36.0001M23.9863 25.6946L14.5618 36.0001M58.2472 59.8652H49.5988V36.0001M49.5988 36.0001H58.2472" stroke="#161616" stroke-width="6"></path>
<path d="M14.5618 59.8652V36.0001M49.5988 12.1349L32.5238 37.0848L23.9863 25.6946M49.5988 12.1349H58.2472M49.5988 12.1349V36.0001M23.9863 25.6946L14.5618 12.1349V36.0001M23.9863 25.6946L14.5618 36.0001M58.2472 59.8652H49.5988V36.0001M49.5988 36.0001H58.2472" stroke="#D9D9D9" stroke-width="2"></path>
</svg><style>@media (prefers-color-scheme: light) { :root { filter: none; } }
@media (prefers-color-scheme: dark) { :root { filter: none; } }
</style></svg>