<svg width="183" height="43" viewBox="0 0 183 43" fill="none" xmlns="http://www.w3.org/2000/svg">
<rect x="1" y="1" width="180.266" height="41" rx="10" fill="#EEEEEE" stroke="#010B7F" stroke-width="2"/>
<path d="M71.9348 31.3C70.8548 31.3 69.8648 31.03 68.9648 30.49C68.0848 29.93 67.3748 29.2 66.8348 28.3C66.3148 27.38 66.0548 26.37 66.0548 25.27V23.89C66.0548 23.79 66.1048 23.74 66.2048 23.74H69.5648C69.6448 23.74 69.6848 23.79 69.6848 23.89V25.27C69.6848 25.93 69.9048 26.5 70.3448 26.98C70.7848 27.44 71.3148 27.67 71.9348 27.67C72.5548 27.67 73.0848 27.43 73.5248 26.95C73.9648 26.47 74.1848 25.91 74.1848 25.27C74.1848 24.53 73.7048 23.89 72.7448 23.35C72.4248 23.17 71.9248 22.89 71.2448 22.51C70.5648 22.13 69.9248 21.77 69.3248 21.43C68.2248 20.79 67.4048 19.99 66.8648 19.03C66.3448 18.05 66.0848 16.95 66.0848 15.73C66.0848 14.61 66.3548 13.61 66.8948 12.73C67.4348 11.83 68.1448 11.12 69.0248 10.6C69.9248 10.08 70.8948 9.82 71.9348 9.82C72.9948 9.82 73.9648 10.09 74.8448 10.63C75.7448 11.15 76.4548 11.86 76.9748 12.76C77.5148 13.64 77.7848 14.63 77.7848 15.73V18.19C77.7848 18.27 77.7448 18.31 77.6648 18.31H74.3048C74.2248 18.31 74.1848 18.27 74.1848 18.19L74.1548 15.73C74.1548 15.03 73.9348 14.46 73.4948 14.02C73.0548 13.58 72.5348 13.36 71.9348 13.36C71.3148 13.36 70.7848 13.6 70.3448 14.08C69.9048 14.54 69.6848 15.09 69.6848 15.73C69.6848 16.39 69.8248 16.94 70.1048 17.38C70.3848 17.82 70.8948 18.24 71.6348 18.64C71.7348 18.7 71.9248 18.81 72.2048 18.97C72.5048 19.11 72.8248 19.28 73.1648 19.48C73.5048 19.66 73.8048 19.82 74.0648 19.96C74.3448 20.1 74.5148 20.19 74.5748 20.23C75.5748 20.79 76.3648 21.48 76.9448 22.3C77.5248 23.1 77.8148 24.09 77.8148 25.27C77.8148 26.41 77.5448 27.44 77.0048 28.36C76.4848 29.26 75.7748 29.98 74.8748 30.52C73.9948 31.04 73.0148 31.3 71.9348 31.3ZM80.0212 31C79.9412 31 79.9012 30.95 79.9012 30.85L79.9312 10.24C79.9312 10.16 79.9712 10.12 80.0512 10.12H89.6812C89.7612 10.12 89.8012 10.17 89.8012 10.27V13.63C89.8012 13.71 89.7612 13.75 89.6812 13.75H83.5312V18.43H89.6812C89.7612 18.43 89.8012 18.47 89.8012 18.55L89.8312 21.94C89.8312 22.02 89.7912 22.06 89.7112 22.06H83.5312V27.31H89.7112C89.7912 27.31 89.8312 27.36 89.8312 27.46V30.88C89.8312 30.96 89.7912 31 89.7112 31H80.0212ZM92.7688 31C92.6088 31 92.5288 30.93 92.5288 30.79L92.4988 10.36C92.4988 10.2 92.5788 10.12 92.7388 10.12H95.4388L100.509 21.94L100.359 10.36C100.359 10.2 100.449 10.12 100.629 10.12H103.599C103.719 10.12 103.779 10.2 103.779 10.36L103.809 30.82C103.809 30.94 103.759 31 103.659 31H101.019L95.8288 19.96L96.0388 30.76C96.0388 30.92 95.9488 31 95.7688 31H92.7688ZM106.565 31C106.465 31 106.415 30.95 106.415 30.85L106.475 10.24C106.475 10.16 106.515 10.12 106.595 10.12L112.205 10.09C113.305 10.07 114.305 10.33 115.205 10.87C116.125 11.41 116.855 12.14 117.395 13.06C117.935 13.96 118.205 14.96 118.205 16.06V24.67C118.205 25.83 117.925 26.89 117.365 27.85C116.805 28.79 116.055 29.54 115.115 30.1C114.175 30.66 113.115 30.95 111.935 30.97L106.565 31ZM110.075 27.31H111.935C112.675 27.31 113.295 27.05 113.795 26.53C114.315 26.01 114.575 25.39 114.575 24.67V16.03C114.575 15.39 114.335 14.84 113.855 14.38C113.395 13.9 112.845 13.67 112.205 13.69L110.105 13.72L110.075 27.31Z" fill="#010B7F"/>
</svg>
