<svg width="265" height="42" viewBox="0 0 265 42" fill="none" xmlns="http://www.w3.org/2000/svg">
<rect x="1" y="1" width="263" height="40" rx="15" fill="#EEEEEE" stroke="#010B7F" stroke-width="2"/>
<path d="M7.65137 15.3359V26H6.23779V15.3359H7.65137ZM12.1191 20.1333V21.2905H7.34375V20.1333H12.1191ZM12.8442 15.3359V16.4932H7.34375V15.3359H12.8442ZM19.0112 24.1689V18.0752H20.3735V26H19.0771L19.0112 24.1689ZM19.2676 22.499L19.8315 22.4844C19.8315 23.0117 19.7754 23.5 19.6631 23.9492C19.5557 24.3936 19.3799 24.7793 19.1357 25.1064C18.8916 25.4336 18.5718 25.6899 18.1763 25.8755C17.7808 26.0562 17.2998 26.1465 16.7334 26.1465C16.3477 26.1465 15.9937 26.0903 15.6714 25.978C15.354 25.8657 15.0806 25.6924 14.8511 25.458C14.6216 25.2236 14.4434 24.9185 14.3164 24.5425C14.1943 24.1665 14.1333 23.7148 14.1333 23.1875V18.0752H15.4883V23.2021C15.4883 23.5586 15.5273 23.854 15.6055 24.0884C15.6885 24.3179 15.7983 24.501 15.9351 24.6377C16.0767 24.7695 16.2329 24.8623 16.4038 24.916C16.5796 24.9697 16.7603 24.9966 16.9458 24.9966C17.522 24.9966 17.9785 24.8867 18.3154 24.667C18.6523 24.4424 18.894 24.1421 19.0405 23.7661C19.1919 23.3853 19.2676 22.9629 19.2676 22.499ZM23.9111 14.75V26H22.5488V14.75H23.9111ZM27.5586 14.75V26H26.1963V14.75H27.5586ZM41.8628 15.3359V26H40.4419L35.0732 17.7749V26H33.6597V15.3359H35.0732L40.4639 23.583V15.3359H41.8628ZM48.8354 24.645V20.5654C48.8354 20.2529 48.772 19.9819 48.645 19.7524C48.5229 19.5181 48.3374 19.3374 48.0884 19.2104C47.8394 19.0835 47.5317 19.02 47.1655 19.02C46.8237 19.02 46.5234 19.0786 46.2646 19.1958C46.0107 19.313 45.8105 19.4668 45.6641 19.6572C45.5225 19.8477 45.4517 20.0527 45.4517 20.2725H44.0967C44.0967 19.9893 44.1699 19.7085 44.3164 19.4302C44.4629 19.1519 44.6729 18.9004 44.9463 18.6758C45.2246 18.4463 45.5566 18.2656 45.9424 18.1338C46.333 17.9971 46.7676 17.9287 47.2461 17.9287C47.8223 17.9287 48.3301 18.0264 48.7695 18.2217C49.2139 18.417 49.5605 18.7124 49.8096 19.1079C50.0635 19.4985 50.1904 19.9893 50.1904 20.5801V24.2715C50.1904 24.5352 50.2124 24.8159 50.2563 25.1138C50.3052 25.4116 50.376 25.668 50.4688 25.8828V26H49.0552C48.9868 25.8438 48.9331 25.6362 48.894 25.3774C48.855 25.1138 48.8354 24.8696 48.8354 24.645ZM49.0698 21.1953L49.0845 22.1475H47.7148C47.3291 22.1475 46.9849 22.1792 46.6821 22.2427C46.3794 22.3013 46.1255 22.3916 45.9204 22.5137C45.7153 22.6357 45.5591 22.7896 45.4517 22.9751C45.3442 23.1558 45.2905 23.3682 45.2905 23.6123C45.2905 23.8613 45.3467 24.0884 45.459 24.2935C45.5713 24.4985 45.7397 24.6621 45.9644 24.7842C46.1938 24.9014 46.4746 24.96 46.8066 24.96C47.2217 24.96 47.5879 24.8721 47.9053 24.6963C48.2227 24.5205 48.4741 24.3057 48.6597 24.0518C48.8501 23.7979 48.9526 23.5513 48.9673 23.312L49.5459 23.9639C49.5117 24.1689 49.4189 24.396 49.2676 24.645C49.1162 24.894 48.9136 25.1333 48.6597 25.3628C48.4106 25.5874 48.1128 25.7754 47.7661 25.9268C47.4243 26.0732 47.0386 26.1465 46.6089 26.1465C46.0718 26.1465 45.6006 26.0415 45.1953 25.8315C44.7949 25.6216 44.4824 25.3408 44.2578 24.9893C44.0381 24.6328 43.9282 24.2349 43.9282 23.7954C43.9282 23.3706 44.0112 22.9971 44.1772 22.6748C44.3433 22.3477 44.5825 22.0767 44.895 21.8618C45.2075 21.6421 45.5835 21.4761 46.0229 21.3638C46.4624 21.2515 46.9531 21.1953 47.4951 21.1953H49.0698ZM53.6694 19.6499V26H52.3071V18.0752H53.5962L53.6694 19.6499ZM53.3911 21.7373L52.7612 21.7153C52.7661 21.1733 52.8369 20.6729 52.9736 20.2139C53.1104 19.75 53.313 19.3472 53.5815 19.0054C53.8501 18.6636 54.1846 18.3999 54.585 18.2144C54.9854 18.0239 55.4492 17.9287 55.9766 17.9287C56.3477 17.9287 56.6895 17.9824 57.002 18.0898C57.3145 18.1924 57.5854 18.356 57.8149 18.5806C58.0444 18.8052 58.2227 19.0933 58.3496 19.4448C58.4766 19.7964 58.54 20.2212 58.54 20.7192V26H57.1851V20.7852C57.1851 20.3701 57.1143 20.0381 56.9727 19.7891C56.8359 19.54 56.6406 19.3594 56.3867 19.2471C56.1328 19.1299 55.835 19.0713 55.4932 19.0713C55.0928 19.0713 54.7583 19.1421 54.4897 19.2837C54.2212 19.4253 54.0063 19.6206 53.8452 19.8696C53.6841 20.1187 53.5669 20.4043 53.4937 20.7266C53.4253 21.0439 53.3911 21.3809 53.3911 21.7373ZM58.5254 20.9902L57.6172 21.2686C57.6221 20.834 57.6929 20.4165 57.8296 20.0161C57.9712 19.6157 58.1738 19.2593 58.4375 18.9468C58.7061 18.6343 59.0356 18.3877 59.4263 18.207C59.8169 18.0215 60.2637 17.9287 60.7666 17.9287C61.1914 17.9287 61.5674 17.9849 61.8945 18.0972C62.2266 18.2095 62.5049 18.3828 62.7295 18.6172C62.959 18.8467 63.1323 19.1421 63.2495 19.5034C63.3667 19.8647 63.4253 20.2944 63.4253 20.7925V26H62.063V20.7778C62.063 20.3335 61.9922 19.9893 61.8506 19.7451C61.7139 19.4961 61.5186 19.3228 61.2646 19.2251C61.0156 19.1226 60.7178 19.0713 60.3711 19.0713C60.0732 19.0713 59.8096 19.1226 59.5801 19.2251C59.3506 19.3276 59.1577 19.4692 59.0015 19.6499C58.8452 19.8257 58.7256 20.0283 58.6426 20.2578C58.5645 20.4873 58.5254 20.7314 58.5254 20.9902ZM68.7646 26.1465C68.2129 26.1465 67.7124 26.0537 67.2632 25.8682C66.8188 25.6777 66.4355 25.4116 66.1133 25.0698C65.7959 24.728 65.5518 24.3228 65.3809 23.854C65.21 23.3853 65.1245 22.8726 65.1245 22.3159V22.0083C65.1245 21.3638 65.2197 20.79 65.4102 20.2871C65.6006 19.7793 65.8594 19.3496 66.1865 18.998C66.5137 18.6465 66.8848 18.3804 67.2998 18.1997C67.7148 18.019 68.1445 17.9287 68.5889 17.9287C69.1553 17.9287 69.6436 18.0264 70.0537 18.2217C70.4688 18.417 70.8081 18.6904 71.0718 19.042C71.3354 19.3887 71.5308 19.7988 71.6577 20.2725C71.7847 20.7412 71.8481 21.2539 71.8481 21.8105V22.4185H65.9302V21.3125H70.4932V21.21C70.4736 20.8584 70.4004 20.5166 70.2734 20.1846C70.1514 19.8525 69.9561 19.5791 69.6875 19.3643C69.4189 19.1494 69.0527 19.042 68.5889 19.042C68.2812 19.042 67.998 19.1079 67.7393 19.2397C67.4805 19.3667 67.2583 19.5571 67.0728 19.811C66.8872 20.0649 66.7432 20.375 66.6406 20.7412C66.5381 21.1074 66.4868 21.5298 66.4868 22.0083V22.3159C66.4868 22.6919 66.5381 23.0459 66.6406 23.3779C66.748 23.7051 66.9019 23.9932 67.1021 24.2422C67.3071 24.4912 67.5537 24.6865 67.8418 24.8281C68.1348 24.9697 68.4668 25.0405 68.8379 25.0405C69.3164 25.0405 69.7217 24.9429 70.0537 24.7476C70.3857 24.5522 70.6763 24.291 70.9253 23.9639L71.7456 24.6157C71.5747 24.8745 71.3574 25.1211 71.0938 25.3555C70.8301 25.5898 70.5054 25.7803 70.1196 25.9268C69.7388 26.0732 69.2871 26.1465 68.7646 26.1465Z" fill="#161616" fill-opacity="0.75"/>
</svg>
